<mxfile modified="2024-02-21T07:39:24.084Z" host="Electron" agent="Mozilla/5.0 (Windows NT 10.0; Win64; x64) AppleWebKit/537.36 (KHTML, like Gecko) draw.io/23.0.2 Chrome/120.0.6099.109 Electron/28.1.0 Safari/537.36" etag="xSW0Y_PY8FKO511stvbm" version="23.0.2" type="device">
  <diagram id="Ht1M8jgEwFfnCIfOTk4-" name="Page-1">
    <mxGraphModel dx="2363" dy="824" grid="0" gridSize="10" guides="1" tooltips="1" connect="1" arrows="1" fold="1" page="1" pageScale="1" pageWidth="1169" pageHeight="827" math="0" shadow="0">
      <root>
        <mxCell id="0" />
        <mxCell id="1" parent="0" />
        <mxCell id="QF0iH-2CF8fzQv1Gv_uW-72" value="" style="rounded=1;whiteSpace=wrap;html=1;fillColor=none;glass=0;shadow=0;sketch=1;curveFitting=1;jiggle=2;spacingBottom=90;strokeColor=#4D4D4D;" parent="1" vertex="1">
          <mxGeometry x="116.03" y="20" width="100" height="70" as="geometry" />
        </mxCell>
        <mxCell id="UEzPUAAOIrF-is8g5C7q-74" value="AWS Cloud" style="points=[[0,0],[0.25,0],[0.5,0],[0.75,0],[1,0],[1,0.25],[1,0.5],[1,0.75],[1,1],[0.75,1],[0.5,1],[0.25,1],[0,1],[0,0.75],[0,0.5],[0,0.25]];outlineConnect=0;gradientColor=none;html=1;whiteSpace=wrap;fontSize=12;fontStyle=0;shape=mxgraph.aws4.group;grIcon=mxgraph.aws4.group_aws_cloud_alt;strokeColor=#232F3E;fillColor=none;verticalAlign=top;align=left;spacingLeft=30;fontColor=#232F3E;dashed=0;labelBackgroundColor=#ffffff;container=1;pointerEvents=0;collapsible=0;recursiveResize=0;" parent="1" vertex="1">
          <mxGeometry x="230" y="100" width="780" height="620" as="geometry" />
        </mxCell>
        <mxCell id="QF0iH-2CF8fzQv1Gv_uW-14" value="Region" style="points=[[0,0],[0.25,0],[0.5,0],[0.75,0],[1,0],[1,0.25],[1,0.5],[1,0.75],[1,1],[0.75,1],[0.5,1],[0.25,1],[0,1],[0,0.75],[0,0.5],[0,0.25]];outlineConnect=0;gradientColor=none;html=1;whiteSpace=wrap;fontSize=12;fontStyle=0;container=1;pointerEvents=0;collapsible=0;recursiveResize=0;shape=mxgraph.aws4.group;grIcon=mxgraph.aws4.group_region;strokeColor=#00A4A6;fillColor=none;verticalAlign=top;align=left;spacingLeft=30;fontColor=#147EBA;" parent="UEzPUAAOIrF-is8g5C7q-74" vertex="1">
          <mxGeometry x="50" y="30" width="710" height="570" as="geometry" />
        </mxCell>
        <mxCell id="y2FYSkK0uKAj6WH6ypQ8-10" value="" style="rounded=0;whiteSpace=wrap;html=1;fillColor=none;" parent="QF0iH-2CF8fzQv1Gv_uW-14" vertex="1">
          <mxGeometry x="11" y="313" width="54" height="228" as="geometry" />
        </mxCell>
        <mxCell id="QF0iH-2CF8fzQv1Gv_uW-15" value="AZ - 2" style="fillColor=none;strokeColor=#147EBA;dashed=1;verticalAlign=top;fontStyle=0;fontColor=#147EBA;whiteSpace=wrap;html=1;" parent="QF0iH-2CF8fzQv1Gv_uW-14" vertex="1">
          <mxGeometry x="429.88" y="25" width="260.12" height="525" as="geometry" />
        </mxCell>
        <mxCell id="QF0iH-2CF8fzQv1Gv_uW-22" value="Public subnet - 2" style="points=[[0,0],[0.25,0],[0.5,0],[0.75,0],[1,0],[1,0.25],[1,0.5],[1,0.75],[1,1],[0.75,1],[0.5,1],[0.25,1],[0,1],[0,0.75],[0,0.5],[0,0.25]];outlineConnect=0;gradientColor=none;html=1;whiteSpace=wrap;fontSize=12;fontStyle=0;container=1;pointerEvents=0;collapsible=0;recursiveResize=0;shape=mxgraph.aws4.group;grIcon=mxgraph.aws4.group_security_group;grStroke=0;strokeColor=#7AA116;fillColor=#F2F6E8;verticalAlign=top;align=left;spacingLeft=30;fontColor=#248814;dashed=0;" parent="QF0iH-2CF8fzQv1Gv_uW-14" vertex="1">
          <mxGeometry x="449.88" y="52.5" width="230" height="227.5" as="geometry" />
        </mxCell>
        <mxCell id="QF0iH-2CF8fzQv1Gv_uW-45" value="" style="rounded=1;arcSize=10;dashed=1;strokeColor=#ff0000;fillColor=none;gradientColor=none;dashPattern=8 4;strokeWidth=1;spacing=1;" parent="QF0iH-2CF8fzQv1Gv_uW-14" vertex="1">
          <mxGeometry x="489.88" y="118.75" width="80" height="80" as="geometry" />
        </mxCell>
        <mxCell id="QF0iH-2CF8fzQv1Gv_uW-16" value="AZ - 1" style="fillColor=none;strokeColor=#147EBA;dashed=1;verticalAlign=top;fontStyle=0;fontColor=#147EBA;whiteSpace=wrap;html=1;" parent="QF0iH-2CF8fzQv1Gv_uW-14" vertex="1">
          <mxGeometry x="90" y="25" width="270" height="525" as="geometry" />
        </mxCell>
        <mxCell id="QF0iH-2CF8fzQv1Gv_uW-12" value="Public subnet - 1" style="points=[[0,0],[0.25,0],[0.5,0],[0.75,0],[1,0],[1,0.25],[1,0.5],[1,0.75],[1,1],[0.75,1],[0.5,1],[0.25,1],[0,1],[0,0.75],[0,0.5],[0,0.25]];outlineConnect=0;gradientColor=none;html=1;whiteSpace=wrap;fontSize=12;fontStyle=0;container=1;pointerEvents=0;collapsible=0;recursiveResize=0;shape=mxgraph.aws4.group;grIcon=mxgraph.aws4.group_security_group;grStroke=0;strokeColor=#7AA116;fillColor=#F2F6E8;verticalAlign=top;align=left;spacingLeft=30;fontColor=#248814;dashed=0;shadow=0;fillStyle=auto;perimeterSpacing=3;" parent="QF0iH-2CF8fzQv1Gv_uW-14" vertex="1">
          <mxGeometry x="109.88" y="58.75" width="210" height="231.25" as="geometry" />
        </mxCell>
        <mxCell id="QF0iH-2CF8fzQv1Gv_uW-28" value="" style="sketch=0;outlineConnect=0;fontColor=#232F3E;gradientColor=none;fillColor=#8C4FFF;strokeColor=none;dashed=0;verticalLabelPosition=bottom;verticalAlign=top;align=center;html=1;fontSize=12;fontStyle=0;aspect=fixed;pointerEvents=1;shape=mxgraph.aws4.nat_gateway;spacingLeft=-50;spacingBottom=0;spacingTop=-26;" parent="QF0iH-2CF8fzQv1Gv_uW-12" vertex="1">
          <mxGeometry x="150" y="179" width="35.06" height="35.06" as="geometry" />
        </mxCell>
        <mxCell id="QF0iH-2CF8fzQv1Gv_uW-10" value="" style="rounded=1;arcSize=10;dashed=1;strokeColor=#ff0000;fillColor=none;gradientColor=none;dashPattern=8 4;strokeWidth=1;" parent="QF0iH-2CF8fzQv1Gv_uW-14" vertex="1">
          <mxGeometry x="124.94" y="118.75" width="164.94" height="68.5" as="geometry" />
        </mxCell>
        <mxCell id="QF0iH-2CF8fzQv1Gv_uW-66" style="edgeStyle=orthogonalEdgeStyle;rounded=0;orthogonalLoop=1;jettySize=auto;html=1;fontColor=#B3B3B3;endArrow=none;endFill=0;startArrow=classic;startFill=1;startSize=3;endSize=3;strokeColor=#B3B3B3;" parent="QF0iH-2CF8fzQv1Gv_uW-14" target="QF0iH-2CF8fzQv1Gv_uW-31" edge="1">
          <mxGeometry relative="1" as="geometry">
            <mxPoint x="265" y="149" as="sourcePoint" />
            <Array as="points">
              <mxPoint x="340" y="150" />
              <mxPoint x="340" y="33" />
            </Array>
          </mxGeometry>
        </mxCell>
        <mxCell id="QF0iH-2CF8fzQv1Gv_uW-5" value="&lt;font style=&quot;font-size: 10px;&quot;&gt;bastion-host&lt;/font&gt;" style="sketch=0;outlineConnect=0;fontColor=#232F3E;gradientColor=none;fillColor=#ED7100;strokeColor=none;dashed=0;verticalLabelPosition=bottom;verticalAlign=top;align=center;html=1;fontSize=12;fontStyle=0;aspect=fixed;pointerEvents=1;shape=mxgraph.aws4.instance2;" parent="QF0iH-2CF8fzQv1Gv_uW-14" vertex="1">
          <mxGeometry x="220" y="129" width="29.75" height="29.75" as="geometry" />
        </mxCell>
        <mxCell id="QF0iH-2CF8fzQv1Gv_uW-11" value="Private subnet - 1" style="points=[[0,0],[0.25,0],[0.5,0],[0.75,0],[1,0],[1,0.25],[1,0.5],[1,0.75],[1,1],[0.75,1],[0.5,1],[0.25,1],[0,1],[0,0.75],[0,0.5],[0,0.25]];outlineConnect=0;gradientColor=none;html=1;whiteSpace=wrap;fontSize=12;fontStyle=0;container=1;pointerEvents=0;collapsible=0;recursiveResize=0;shape=mxgraph.aws4.group;grIcon=mxgraph.aws4.group_security_group;grStroke=0;strokeColor=#00A4A6;fillColor=#E6F6F7;verticalAlign=top;align=left;spacingLeft=30;fontColor=#147EBA;dashed=0;strokeWidth=5;perimeterSpacing=2;" parent="QF0iH-2CF8fzQv1Gv_uW-14" vertex="1">
          <mxGeometry x="109.88" y="308" width="210" height="228.75" as="geometry" />
        </mxCell>
        <mxCell id="UEzPUAAOIrF-is8g5C7q-87" value="&lt;font style=&quot;font-size: 10px;&quot;&gt;DynamoDB&lt;/font&gt;" style="outlineConnect=0;fontColor=#232F3E;gradientColor=#4D72F3;gradientDirection=north;fillColor=#3334B9;strokeColor=#ffffff;dashed=0;verticalLabelPosition=bottom;verticalAlign=top;align=center;html=1;fontSize=12;fontStyle=0;aspect=fixed;shape=mxgraph.aws4.resourceIcon;resIcon=mxgraph.aws4.dynamodb;labelBackgroundColor=#ffffff;" parent="QF0iH-2CF8fzQv1Gv_uW-14" vertex="1">
          <mxGeometry x="20" y="480" width="35" height="35" as="geometry" />
        </mxCell>
        <mxCell id="QF0iH-2CF8fzQv1Gv_uW-25" value="Private subnet - 2" style="points=[[0,0],[0.25,0],[0.5,0],[0.75,0],[1,0],[1,0.25],[1,0.5],[1,0.75],[1,1],[0.75,1],[0.5,1],[0.25,1],[0,1],[0,0.75],[0,0.5],[0,0.25]];outlineConnect=0;gradientColor=none;html=1;whiteSpace=wrap;fontSize=12;fontStyle=0;container=1;pointerEvents=0;collapsible=0;recursiveResize=0;shape=mxgraph.aws4.group;grIcon=mxgraph.aws4.group_security_group;grStroke=0;strokeColor=#00A4A6;fillColor=#E6F6F7;verticalAlign=top;align=left;spacingLeft=30;fontColor=#147EBA;dashed=0;strokeWidth=5;perimeterSpacing=2;" parent="QF0iH-2CF8fzQv1Gv_uW-14" vertex="1">
          <mxGeometry x="449.88" y="308" width="230" height="222.5" as="geometry" />
        </mxCell>
        <mxCell id="QF0iH-2CF8fzQv1Gv_uW-26" value="" style="rounded=1;arcSize=10;dashed=1;strokeColor=#ff0000;fillColor=none;gradientColor=none;dashPattern=8 4;strokeWidth=1;" parent="QF0iH-2CF8fzQv1Gv_uW-25" vertex="1">
          <mxGeometry x="80" y="131.25" width="91" height="68.5" as="geometry" />
        </mxCell>
        <mxCell id="QF0iH-2CF8fzQv1Gv_uW-27" value="&lt;font style=&quot;&quot;&gt;&lt;span style=&quot;color: rgb(0, 0, 0); font-family: Consolas, &amp;quot;Courier New&amp;quot;, monospace; font-style: normal; font-variant-ligatures: normal; font-variant-caps: normal; font-weight: 400; letter-spacing: normal; orphans: 2; text-align: center; text-indent: 0px; text-transform: none; widows: 2; word-spacing: 0px; -webkit-text-stroke-width: 0px; text-decoration-thickness: initial; text-decoration-style: initial; text-decoration-color: initial; float: none; display: inline !important;&quot;&gt;&lt;font style=&quot;font-size: 10px;&quot;&gt;App-host&lt;/font&gt;&lt;/span&gt;&lt;br&gt;&lt;/font&gt;" style="sketch=0;outlineConnect=0;fontColor=#232F3E;gradientColor=none;fillColor=#ED7100;strokeColor=none;dashed=0;verticalLabelPosition=bottom;verticalAlign=top;align=center;html=1;fontSize=12;fontStyle=0;aspect=fixed;pointerEvents=1;shape=mxgraph.aws4.instance2;" parent="QF0iH-2CF8fzQv1Gv_uW-25" vertex="1">
          <mxGeometry x="110.5" y="143.25" width="30" height="30" as="geometry" />
        </mxCell>
        <mxCell id="QF0iH-2CF8fzQv1Gv_uW-31" value="IGW" style="sketch=0;outlineConnect=0;fontColor=#232F3E;gradientColor=none;fillColor=#8C4FFF;strokeColor=none;dashed=0;verticalLabelPosition=bottom;verticalAlign=top;align=center;html=1;fontSize=12;fontStyle=0;aspect=fixed;pointerEvents=1;shape=mxgraph.aws4.internet_gateway;" parent="QF0iH-2CF8fzQv1Gv_uW-14" vertex="1">
          <mxGeometry x="374.94" y="12.5" width="40" height="40" as="geometry" />
        </mxCell>
        <mxCell id="QF0iH-2CF8fzQv1Gv_uW-34" value="&lt;h6&gt;&lt;br&gt;&lt;/h6&gt;" style="outlineConnect=0;dashed=0;verticalLabelPosition=bottom;verticalAlign=top;align=center;html=1;shape=mxgraph.aws3.route_table;fillColor=#F58536;gradientColor=none;" parent="QF0iH-2CF8fzQv1Gv_uW-14" vertex="1">
          <mxGeometry x="304.82" y="87.5" width="24.94" height="25" as="geometry" />
        </mxCell>
        <mxCell id="QF0iH-2CF8fzQv1Gv_uW-36" value="&lt;h6&gt;&lt;br&gt;&lt;/h6&gt;" style="outlineConnect=0;dashed=0;verticalLabelPosition=bottom;verticalAlign=top;align=center;html=1;shape=mxgraph.aws3.route_table;fillColor=#F58536;gradientColor=none;" parent="QF0iH-2CF8fzQv1Gv_uW-14" vertex="1">
          <mxGeometry x="304.82" y="326.75" width="24.94" height="25" as="geometry" />
        </mxCell>
        <mxCell id="QF0iH-2CF8fzQv1Gv_uW-40" value="&lt;font style=&quot;font-size: 10px;&quot; color=&quot;#000000&quot;&gt;Auto Scaling&lt;br&gt;group&lt;br&gt;&lt;/font&gt;" style="points=[[0,0],[0.25,0],[0.5,0],[0.75,0],[1,0],[1,0.25],[1,0.5],[1,0.75],[1,1],[0.75,1],[0.5,1],[0.25,1],[0,1],[0,0.75],[0,0.5],[0,0.25]];outlineConnect=0;gradientColor=none;html=1;whiteSpace=wrap;fontSize=12;fontStyle=0;container=1;pointerEvents=0;collapsible=0;recursiveResize=0;shape=mxgraph.aws4.groupCenter;grIcon=mxgraph.aws4.group_auto_scaling_group;grStroke=1;strokeColor=#D86613;fillColor=none;verticalAlign=top;align=center;fontColor=#D86613;dashed=1;spacingTop=25;" parent="QF0iH-2CF8fzQv1Gv_uW-14" vertex="1">
          <mxGeometry x="159.94" y="406.75" width="470" height="110" as="geometry" />
        </mxCell>
        <mxCell id="QF0iH-2CF8fzQv1Gv_uW-18" value="" style="rounded=1;arcSize=10;dashed=1;strokeColor=#ff0000;fillColor=none;gradientColor=none;dashPattern=8 4;strokeWidth=1;" parent="QF0iH-2CF8fzQv1Gv_uW-40" vertex="1">
          <mxGeometry x="13.75" y="20" width="91" height="68.5" as="geometry" />
        </mxCell>
        <mxCell id="QF0iH-2CF8fzQv1Gv_uW-4" value="&lt;font style=&quot;&quot;&gt;&lt;span style=&quot;color: rgb(0, 0, 0); font-family: Consolas, &amp;quot;Courier New&amp;quot;, monospace; font-style: normal; font-variant-ligatures: normal; font-variant-caps: normal; font-weight: 400; letter-spacing: normal; orphans: 2; text-align: center; text-indent: 0px; text-transform: none; widows: 2; word-spacing: 0px; -webkit-text-stroke-width: 0px; text-decoration-thickness: initial; text-decoration-style: initial; text-decoration-color: initial; float: none; display: inline !important;&quot;&gt;&lt;font style=&quot;font-size: 10px;&quot;&gt;App-host&lt;/font&gt;&lt;/span&gt;&lt;br&gt;&lt;/font&gt;" style="sketch=0;outlineConnect=0;fontColor=#232F3E;gradientColor=none;fillColor=#ED7100;strokeColor=none;dashed=0;verticalLabelPosition=bottom;verticalAlign=top;align=center;html=1;fontSize=12;fontStyle=0;aspect=fixed;pointerEvents=1;shape=mxgraph.aws4.instance2;" parent="QF0iH-2CF8fzQv1Gv_uW-40" vertex="1">
          <mxGeometry x="44.25" y="32" width="30" height="30" as="geometry" />
        </mxCell>
        <mxCell id="QF0iH-2CF8fzQv1Gv_uW-43" value="&lt;font style=&quot;font-size: 10px;&quot;&gt;apache&lt;/font&gt;" style="sketch=0;outlineConnect=0;fontColor=#232F3E;gradientColor=none;fillColor=#ED7100;strokeColor=none;dashed=0;verticalLabelPosition=bottom;verticalAlign=top;align=center;html=1;fontSize=12;fontStyle=0;aspect=fixed;pointerEvents=1;shape=mxgraph.aws4.instance2;" parent="QF0iH-2CF8fzQv1Gv_uW-14" vertex="1">
          <mxGeometry x="159.94" y="129" width="29.75" height="29.75" as="geometry" />
        </mxCell>
        <mxCell id="QF0iH-2CF8fzQv1Gv_uW-44" value="&lt;font style=&quot;font-size: 10px;&quot;&gt;apache&lt;/font&gt;" style="sketch=0;outlineConnect=0;fontColor=#232F3E;gradientColor=none;fillColor=#ED7100;strokeColor=none;dashed=0;verticalLabelPosition=bottom;verticalAlign=top;align=center;html=1;fontSize=12;fontStyle=0;aspect=fixed;pointerEvents=1;shape=mxgraph.aws4.instance2;" parent="QF0iH-2CF8fzQv1Gv_uW-14" vertex="1">
          <mxGeometry x="514.94" y="138.13" width="29.75" height="29.75" as="geometry" />
        </mxCell>
        <mxCell id="UEzPUAAOIrF-is8g5C7q-77" value="&lt;font style=&quot;font-size: 10px;&quot;&gt;Bucket&lt;/font&gt;" style="outlineConnect=0;fontColor=#232F3E;gradientColor=none;fillColor=#277116;strokeColor=none;dashed=0;verticalLabelPosition=bottom;verticalAlign=top;align=center;html=1;fontSize=12;fontStyle=0;aspect=fixed;pointerEvents=1;shape=mxgraph.aws4.bucket_with_objects;labelBackgroundColor=#ffffff;" parent="QF0iH-2CF8fzQv1Gv_uW-14" vertex="1">
          <mxGeometry x="24.22" y="320" width="30.78" height="32" as="geometry" />
        </mxCell>
        <mxCell id="QF0iH-2CF8fzQv1Gv_uW-63" style="edgeStyle=orthogonalEdgeStyle;rounded=0;orthogonalLoop=1;jettySize=auto;html=1;strokeColor=#B3B3B3;endSize=3;startSize=3;exitX=0.999;exitY=0.539;exitDx=0;exitDy=0;exitPerimeter=0;" parent="QF0iH-2CF8fzQv1Gv_uW-14" source="QF0iH-2CF8fzQv1Gv_uW-18" target="QF0iH-2CF8fzQv1Gv_uW-28" edge="1">
          <mxGeometry relative="1" as="geometry">
            <mxPoint x="270" y="490" as="sourcePoint" />
            <Array as="points">
              <mxPoint x="282" y="464" />
            </Array>
          </mxGeometry>
        </mxCell>
        <mxCell id="QF0iH-2CF8fzQv1Gv_uW-67" style="edgeStyle=orthogonalEdgeStyle;rounded=0;orthogonalLoop=1;jettySize=auto;html=1;endSize=3;startSize=3;strokeColor=#B3B3B3;" parent="QF0iH-2CF8fzQv1Gv_uW-14" source="QF0iH-2CF8fzQv1Gv_uW-28" edge="1">
          <mxGeometry relative="1" as="geometry">
            <mxPoint x="395" y="80" as="targetPoint" />
          </mxGeometry>
        </mxCell>
        <mxCell id="QF0iH-2CF8fzQv1Gv_uW-32" value="&lt;h6&gt;&lt;font face=&quot;Helvetica&quot; style=&quot;font-size: 8px;&quot;&gt;State File&lt;/font&gt;&lt;/h6&gt;" style="whiteSpace=wrap;html=1;shape=mxgraph.basic.document" parent="UEzPUAAOIrF-is8g5C7q-74" vertex="1">
          <mxGeometry x="12" y="287" width="26.57" height="30" as="geometry" />
        </mxCell>
        <mxCell id="QF0iH-2CF8fzQv1Gv_uW-52" style="edgeStyle=orthogonalEdgeStyle;rounded=0;orthogonalLoop=1;jettySize=auto;html=1;dashed=1;exitX=0.5;exitY=1;exitDx=0;exitDy=0;exitPerimeter=0;endSize=3;startSize=3;endFill=0;strokeColor=#B3B3B3;" parent="UEzPUAAOIrF-is8g5C7q-74" source="QF0iH-2CF8fzQv1Gv_uW-32" target="UEzPUAAOIrF-is8g5C7q-87" edge="1">
          <mxGeometry relative="1" as="geometry">
            <mxPoint x="23.319999999999936" y="388.75" as="sourcePoint" />
            <mxPoint x="88" y="480" as="targetPoint" />
            <Array as="points">
              <mxPoint x="25" y="320" />
              <mxPoint x="25" y="419" />
              <mxPoint x="88" y="419" />
            </Array>
          </mxGeometry>
        </mxCell>
        <mxCell id="QF0iH-2CF8fzQv1Gv_uW-53" value="&lt;font color=&quot;#999999&quot;&gt;state lock&lt;/font&gt;" style="edgeLabel;html=1;align=center;verticalAlign=middle;resizable=0;points=[];rotation=90;" parent="QF0iH-2CF8fzQv1Gv_uW-52" vertex="1" connectable="0">
          <mxGeometry x="-0.1467" relative="1" as="geometry">
            <mxPoint x="56" y="43" as="offset" />
          </mxGeometry>
        </mxCell>
        <mxCell id="QF0iH-2CF8fzQv1Gv_uW-55" style="edgeStyle=orthogonalEdgeStyle;rounded=0;orthogonalLoop=1;jettySize=auto;html=1;exitX=1.016;exitY=0.536;exitDx=0;exitDy=0;exitPerimeter=0;startSize=4;endSize=3;endFill=0;dashed=1;strokeColor=#999999;" parent="UEzPUAAOIrF-is8g5C7q-74" source="QF0iH-2CF8fzQv1Gv_uW-32" target="UEzPUAAOIrF-is8g5C7q-77" edge="1">
          <mxGeometry relative="1" as="geometry">
            <mxPoint x="105.06465116279068" y="433.71" as="sourcePoint" />
            <mxPoint x="118.52255999999997" y="457.83" as="targetPoint" />
            <Array as="points">
              <mxPoint x="44" y="303" />
              <mxPoint x="90" y="304" />
            </Array>
          </mxGeometry>
        </mxCell>
        <mxCell id="QF0iH-2CF8fzQv1Gv_uW-51" style="rounded=0;orthogonalLoop=1;jettySize=auto;html=1;endSize=3;endFill=0;startSize=3;" parent="1" edge="1">
          <mxGeometry relative="1" as="geometry">
            <mxPoint x="165.96000000000006" y="250" as="sourcePoint" />
            <mxPoint x="166" y="300" as="targetPoint" />
          </mxGeometry>
        </mxCell>
        <mxCell id="QF0iH-2CF8fzQv1Gv_uW-6" value="" style="dashed=0;outlineConnect=0;html=1;align=center;labelPosition=center;verticalLabelPosition=bottom;verticalAlign=top;shape=mxgraph.weblogos.github" parent="1" vertex="1">
          <mxGeometry x="151.03" y="125" width="30" height="30" as="geometry" />
        </mxCell>
        <mxCell id="QF0iH-2CF8fzQv1Gv_uW-46" style="edgeStyle=orthogonalEdgeStyle;rounded=0;orthogonalLoop=1;jettySize=auto;html=1;fontSize=11;strokeWidth=1;endSize=3;startSize=4;endFill=0;dashed=1;" parent="1" target="QF0iH-2CF8fzQv1Gv_uW-32" edge="1">
          <mxGeometry relative="1" as="geometry">
            <mxPoint x="166" y="370" as="sourcePoint" />
            <Array as="points">
              <mxPoint x="166" y="406" />
              <mxPoint x="253" y="406" />
            </Array>
          </mxGeometry>
        </mxCell>
        <mxCell id="QF0iH-2CF8fzQv1Gv_uW-7" value="terraform" style="shape=image;verticalLabelPosition=bottom;verticalAlign=top;imageAspect=0;aspect=fixed;image=data:image/png,iVBORw0KGgoAAAANSUhEUgAAAHAAAACACAYAAADTcu1SAAAAAXNSR0IArs4c6QAADitJREFUeAHtnX1UlFUex5/7PDOAoiWnRGbo5G6FL7XV4lqnrFZAT6booOxOLyuD7FZmdbT3jlu5S55t/SM37XjWNirFGWpLVmEGNLUEcteOWcZmbyrlZh1mSDCtFAVmnrvfB7nwMIHAvD3PzNw5B+597jNz7+9+P3Nfnvs2gi3PveUPlubxAn9FpQIipXRWB+n4uGCu+28Lrd+dH5W5iGOjRSXvgGgUZPrw6bYzDTaL++7iYtoZHse6RE3We4GiAh2Nv5Iv6t37bPM8U6MmF3FsaC+A3TpQ4ZfUJ9ehNG68M989tjuce3SnQN8Au8xEabS2e+mBAot7uc3WlKw767lBwjkBKvpQQUjC/2XC976DADkf7SXhuulHAVJgaQSjIb32GAziktLNpveH9Cn+5rAoMGAJ7CPV67xe+h5KY+nC/GZTH/d5UAQVCAQgzFOqUbqg1ddxqDDPvXTxYpoYQZt5UioFAgTYFQOlI2RKVxw/4vkMIOep4uXeCCkQSBvYr2koljUSkR4sdaZ93O+b+I2QKhBcCfQzBb2hHK8g1xfkNf69cN4PF/jd5pdhUCCkADvto1TCs8d9su/HBgyUL8GwnCEMdvMouxQIPcAeaVPwzPj8l/We/QA5oyeY+0KpQDgBdtoJiBPxt81maawq+s3RjFAaz+MSBh6JCZVIaB9ne70dnxTmNT67eP6x80IVb7zHE/YS2EtgKiTIVHj0xMm2Bjx23MWnrXqpE9BFZAF2mYgqNRXPjy99We/+oCjPfVNAlvMPdSqgCUCmPaVCppfSXba8xtcLre6LWTh3B6+ALrr4AHmb0C6kwuycwZvO36kooGkJVCNAJ4dPU6kFGaRfNwD97cVqgMlYLWf2D+fXZxVAP4Lk5FTN0S1AFMcbOoTO2Y4nioooJpX5iymQk1M9JTu7ai+anjW6BagYiyUdyeitPuM77vncNs+dzzIQr+7MmVsvArgyWZZ3Q4PJig666MQMBATVxc8En7CpIM9dJ4jSg2UVYz4a6DOxdN9qfXdYS8t3j54541sKLYar86brEqg2tNNPaZYg+/ZhbPWFhXe4L/zJ/RgMQHVpbWk5doBSebk/PCW70QVQsRizHcjIotOttKHQ4n5g4UIsSo7B1/TpWzOzsqp2obrciPz2+4wcfQC7YKEBHyULdPXpJs/+wrmembHC8Oabt6einSvx+bwf4Ns64ChVVLSB54KDjs4EKtOtaB+3JFDjI+tcow+e6/16vWe1fprQ3Py/xR0d7X9CiRv0YH/UlsCfgKA0N1o36WRnV+c2Nx/+RBDklUOBp2gQOwCRGWQ+qjbpTJ9ePRHV5XZ0UKphfUBzpTEFkJVKVKu63qSTm1udglGU1Vhfux9fupuZ3YG4MQmwWwidbdKxWqmEx4J7W1vlBlmmD6DUBd0HiW2AXST1sEknJ2drTnNzdT0eC9aiBx2yFXtxAVDhiNkOTTbpoJ27BM9zm2XZuxNWXNldO4TIEzcAmV4AmQ4hywrnuncX5XuuYeGhdq3W2hEAt8Lno58hvbCtWo87gAwUqrHrw7FJB50SkpVVvaC5+eQhgFPGLsO6byRuAZ4FGdpNOtOmVV2PZ7r38DxXCngR2bkV5wC7ymOQm3TwSJCuTPP4fAKmeWjYqmVWe6hdkQjkXqxmaFEHxq+fXoL5x81YhLyzKK9pwA5HUVFtEkrcMlTHh1BVzge8iC8LER0u8z8M4rAMQSTPA6Q3fuH15BwdnQE36SjTPEeOnOx3mqcntvD6OqvQ0sqUE2WV5geJJFxFCNke3iSjJHbVJp3f57snqa1G79LVNc0zVh2uhb9XG+ioMH/ucJpvESVpDoxp0MIgHaaZ0iELvebjCBGu1oudvQAyo+wVadXD08xXCER8DNXqDyycu/pToE+AipklJaSjzGlaSSQxAx2dV1C1yvozn1vUL0AmjaMi7Sg6OncRapgsEPJvFs5dfSgwIEBmpt2VWl/mNP9aJNLtKJFfs3DuaqvAoAEyM+3OtDcuTDRNwFxwMUC2snDuaqPAkAEqZq4qJ6fLXKanDSRxAnpkr2tjOk9VUSAggEy69c4LvnE40++QDMKN6OTsY+HcjZwCQQFkZm7YnL770kzTtaIg3YnHjm9ZOHfDr0BIACpmFhcT2e5KW5cyMnEcNoo9i7/28JvPUwgZQCblmlcv+KHMmf64kGC8Au1jFQvnbngUCDlAZmZZeeoXaB8tkkhm4PkRs9L8FQ4FwgaQGbuh0rzjskzT1aIoLEHYcRbO3dAoEHaAiploH732yvQ1ojQyA23jWpRIX2jM57FEBCCT2V5x3jG0j/cbBDFTOdmQhXM3cAUiCpCZqRxH6XClTxMJwa5bcpiFc3foCmgCkJlpd5orUsaaLicieYII9EcWzt3BKxD00u7BJ9X3O9esIW24s4IfZNC3PgOFaloC1caVlpIz6mvuH5wCugHoby7Wdx3AbMcp/3B+3aMAVsN9qFuAWJuz3SgYx6GTU4Y/LBTjL6YAJg4OiyLJr6ubk69bgIqx2C7tLnOZbfihkSkwei/LQBy7J6HDE0lJ0uU1NXMqFB0078QMBkbp5rQ9WDh73YL8pkLsq1uBrbgRWbY+GNsi8x5CMa7sSEgwLt2+/RaPOk3dAlQ2ieDVXXV2+TfcZz266cd275OA+BBuhnXjiFooDf17MAz5AEpcnzWQbqvQwjzPPTjQZwUOvBupFm9teepJtI9/NBoNl2NIrrMaUd+PFT++sI2SJNpqa+dM6Q+eklfdAsRQWyJK4VLlwDvbXE+RUiLVcNZtGnMYi6zyiSRNA8iP1fei20/OiKL4jNGYMH7nztll6lqor3zpFiAzFtuj06gsr8dhPnsL8r6dwsKZi2WPNZYEU6ZIxPvRThxj4dHpkn8lJRkm1tTMfmrHjhmDeoTSPUAGAiVwskC9u1Gtlt2Vf+wiFq64t5YTn91pWjsiOTmDEHENHjuiapMOStlH+PJl4bHAum3bzK/UeRvIHzUAWUYAcn6bt+0gSuSyh6x0GAtX3BdeG3Xc4TQtMRJyNarVHep7+vSTZti1aOrU2ZNqay3vBGJj1AFUMolqdTh2By1vafMcsFk8Vv+Mr3eaPkP7OIMQyYKG8wv/+9pfkw7UFKtGjRoxrq7O8qKynihQm6ISIMssQF5MBXkjzknbVWg5msnCmetwplVdmmi+QhTEx1Gt6mSTDnmTEMOVtbWzH66szD7BbA3UjWqA3Zmm9CZKvB+gfSyxzWtK7Q6Hp7ictNtdpmeTkqVxRBTWob0J+NuujneofrRxB5F2Ltq5WbW1Mw8O9fP9vT82ACJ3aBtF/N2Nn09vwGPHI/7niL78zzHfOirT78Se8mtRGpUjiyPyArTvAe/hjAwzSt2craFONGYA9ghDz8Njx8rWJvenCyye3J7wsz4sstqH8dUbiSDdAWG/8b8fqmvELeOvBOOWGeigrCopmdwRqrjV8cQgwO7sZfgEuRrV6jYcmD6xO7TL43ClvT5sDJmAYaqnsdDqtP/9YK5R6t4xGKRfAdw9b745S+lphu0VywA7RUO1OoP6hP0Fc92r7/3diRS1kiUl5laslisWE4iySecN9b1A/AB3BKMot6KqzHrrrdz/BhLHUD8T8wDPCoJTAXE64MlTpxrwgyKLNuLUQLVQ9nLz11iEfLsoERxxTD5U3xuMH+BOYX5u2dixIyZgFKV8MJ8J1XviBOBZuZRTAvHo8YKr3VNfaPFk+4torzD/57JJpmuwWu5uQDnqf/+n18o0D3kVpXc8Bpz/UlqaHfFlIXEFsBsApVfKglyD0rjJZm36eXc4PJ2bdJzml0eNSMxAj3Vl/5t0yPuSJNyA6rIA8BrVcUTSr9v5wEiIgNKYT9p8uQD53MhEw1+VqSqWrrJJB/7H8LOxJYLg7VXlop27/+23Z21B6euer2Sfi7SLkSZ9vpTfhFB+ViBi1hGCmW6y1FGZ5tADmMHmOz6r0L7UUZZpUHkDBsn3FOU3XdfXW/QYxgH6UcFjx7Ver/xugcXtKLS2pPvd1t0lB9gnks5zRAtoW/tBDAQ8qedV4xxgnwDPBqKTk4wS+RfvCc8t53ibprc4QE3lDz5xDjB4DTWNgQPUVP7gE+cAg9dQ0xg4QE3lDz5xDjB4DTWNgQPUVP7gE+cAg9dQ0xg4QE3lDz5xDjB4DTWNgQPUVP7gE+cAg9dQ0xg4QE3lDz5xDjB4DTWNgQPUVP7gE+cAg9dQ0xg4QE3lDz5xDjB4DTWNgQPUVP7gE9ctQGNisoMfzzwwYN0CfKX8/O/48cxRDJCZzo9nZkr07eq2BPqbqz6eGUeIdO9h8H9fvF1HDUAFjHI8s6PSvGK4ZByH/Qt27GXQfHOJ1l+YqALIxCrZPNqDA+8WYFOlsodhDwuPRzcqATJQ9krTXoCcApA2bLPSbI8es0cLN6oBKoIpW8HsleYy4XxpPPzPAGTEd8lqAY6lGfUAWUYcjrRTKI1PSaI4ESA3sfBYd2MGIANVWmn6CiB/axDFbJTGj1h4rLoxB5CBAsi6SyeZJ+HAgkWoaFtYeKy5MQtQAdV1YMGLBnFYBn6DYjWq1rCclqTllyKmATJhSytTTjhc5ofwY81XAeQ2Fh4LblwAZKBKN5kPAORMSRBn42yXQyw8mt24AshAbXCZtgwbY/6FKJBH8BzyPQuPRjcuASqgSkpIh91lfs6YQHDONnkJf5qcIxrslyZuATLh1pebmvHYsZBQw2SUxl0sPFrcuAfIQNldqfU4Z3sqBgJuA8gjLFzvLgfoR2hDpWnj6AQTRnPEP6PH2up3W3eXHGAfSFaVk9P4+YLliYZEZXz1NZHgnEP+il4F/M8X1VNO/g8k+slcMVd8QwAAAABJRU5ErkJggg==;fontSize=10;" parent="1" vertex="1">
          <mxGeometry x="149.59" y="310" width="32.88" height="37.57" as="geometry" />
        </mxCell>
        <mxCell id="y2FYSkK0uKAj6WH6ypQ8-8" style="edgeStyle=orthogonalEdgeStyle;rounded=0;orthogonalLoop=1;jettySize=auto;html=1;endSize=3;endFill=0;startSize=3;" parent="1" target="y2FYSkK0uKAj6WH6ypQ8-7" edge="1">
          <mxGeometry relative="1" as="geometry">
            <mxPoint x="104" y="221" as="sourcePoint" />
          </mxGeometry>
        </mxCell>
        <mxCell id="QF0iH-2CF8fzQv1Gv_uW-38" value="actions" style="shape=image;editableCssRules=.*;image=data:image/svg+xml,PHN2ZyB2aWV3Qm94PSIwIDAgMjQgMjQiIHhtbG5zPSJodHRwOi8vd3d3LnczLm9yZy8yMDAwL3N2ZyI+PHN0eWxlPip7ZmlsbDojMjA4OEZGfTwvc3R5bGU+PHBhdGggZD0iTTEwLjk4NCAxMy44MzZhLjUuNSAwIDAgMS0uMzUzLS4xNDZsLS43NDUtLjc0M2EuNS41IDAgMSAxIC43MDYtLjcwOGwuMzkyLjM5MSAxLjE4MS0xLjE4YS41LjUgMCAwIDEgLjcwOC43MDdsLTEuNTM1IDEuNTMzYS41MDQuNTA0IDAgMCAxLS4zNTQuMTQ2em05LjM1My0uMTQ3bDEuNTM0LTEuNTMyYS41LjUgMCAwIDAtLjcwNy0uNzA3bC0xLjE4MSAxLjE4LS4zOTItLjM5MWEuNS41IDAgMSAwLS43MDYuNzA4bC43NDYuNzQzYS40OTcuNDk3IDAgMCAwIC43MDYtLjAwMXpNNC41MjcgNy40NTJsMi41NTctMS41ODVBMSAxIDAgMCAwIDcuMDkgNC4xN0w0LjUzMyAyLjU2QTEgMSAwIDAgMCAzIDMuNDA2djMuMTk2YTEuMDAxIDEuMDAxIDAgMCAwIDEuNTI3Ljg1em0yLjAzLTIuNDM2TDQgNi42MDJWMy40MDZsMi41NTcgMS42MXpNMjQgMTIuNWMwIDEuOTMtMS41NyAzLjUtMy41IDMuNWEzLjUwMyAzLjUwMyAwIDAgMS0zLjQ2LTNoLTIuMDhhMy41MDMgMy41MDMgMCAwIDEtMy40NiAzIDMuNTAyIDMuNTAyIDAgMCAxLTMuNDYtM2gtLjU1OGMtLjk3MiAwLTEuODUtLjM5OS0yLjQ4Mi0xLjA0MlYxN2MwIDEuNjU0IDEuMzQ2IDMgMyAzaC4wNGMuMjQ0LTEuNjkzIDEuNy0zIDMuNDYtMyAxLjkzIDAgMy41IDEuNTcgMy41IDMuNVMxMy40MyAyNCAxMS41IDI0YTMuNTAyIDMuNTAyIDAgMCAxLTMuNDYtM0g4Yy0yLjIwNiAwLTQtMS43OTQtNC00VjkuODk5QTUuMDA4IDUuMDA4IDAgMCAxIDAgNWMwLTIuNzU3IDIuMjQzLTUgNS01czUgMi4yNDMgNSA1YTUuMDA1IDUuMDA1IDAgMCAxLTQuOTUyIDQuOTk4QTIuNDgyIDIuNDgyIDAgMCAwIDcuNDgyIDEyaC41NThjLjI0NC0xLjY5MyAxLjctMyAzLjQ2LTNhMy41MDIgMy41MDIgMCAwIDEgMy40NiAzaDIuMDhhMy41MDMgMy41MDMgMCAwIDEgMy40Ni0zYzEuOTMgMCAzLjUgMS41NyAzLjUgMy41em0tMTUgOGMwIDEuMzc4IDEuMTIyIDIuNSAyLjUgMi41czIuNS0xLjEyMiAyLjUtMi41LTEuMTIyLTIuNS0yLjUtMi41UzkgMTkuMTIyIDkgMjAuNXpNNSA5YzIuMjA2IDAgNC0xLjc5NCA0LTRTNy4yMDYgMSA1IDEgMSAyLjc5NCAxIDVzMS43OTQgNCA0IDR6bTkgMy41YzAtMS4zNzgtMS4xMjItMi41LTIuNS0yLjVTOSAxMS4xMjIgOSAxMi41czEuMTIyIDIuNSAyLjUgMi41IDIuNS0xLjEyMiAyLjUtMi41em05IDBjMC0xLjM3OC0xLjEyMi0yLjUtMi41LTIuNVMxOCAxMS4xMjIgMTggMTIuNXMxLjEyMiAyLjUgMi41IDIuNSAyLjUtMS4xMjIgMi41LTIuNXptLTEzIDhhLjUuNSAwIDEgMCAxIDAgLjUuNSAwIDAgMC0xIDB6bTIgMGEuNS41IDAgMSAwIDEgMCAuNS41IDAgMCAwLTEgMHptMTIgMGMwIDEuOTMtMS41NyAzLjUtMy41IDMuNWEzLjUwMyAzLjUwMyAwIDAgMS0zLjQ2LTMuMDAyYy0uMDA3LjAwMS0uMDEzLjAwNS0uMDIxLjAwNWwtLjUwNi4wMTdoLS4wMTdhLjUuNSAwIDAgMS0uMDE2LS45OTlsLjUwNi0uMDE3Yy4wMTgtLjAwMi4wMzUuMDA2LjA1Mi4wMDdBMy41MDMgMy41MDMgMCAwIDEgMjAuNSAxN2MxLjkzIDAgMy41IDEuNTcgMy41IDMuNXptLTEgMGMwLTEuMzc4LTEuMTIyLTIuNS0yLjUtMi41UzE4IDE5LjEyMiAxOCAyMC41czEuMTIyIDIuNSAyLjUgMi41IDIuNS0xLjEyMiAyLjUtMi41eiIvPjwvc3ZnPg==;verticalAlign=bottom;spacingBottom=3;fontSize=10;spacingLeft=-62;" parent="1" vertex="1">
          <mxGeometry x="146.03" y="207" width="40" height="30" as="geometry" />
        </mxCell>
        <mxCell id="QF0iH-2CF8fzQv1Gv_uW-57" style="edgeStyle=orthogonalEdgeStyle;rounded=0;orthogonalLoop=1;jettySize=auto;html=1;endSize=3;endArrow=classic;endFill=0;" parent="1" edge="1">
          <mxGeometry relative="1" as="geometry">
            <mxPoint x="70" y="140" as="sourcePoint" />
            <mxPoint x="140" y="140" as="targetPoint" />
          </mxGeometry>
        </mxCell>
        <mxCell id="QF0iH-2CF8fzQv1Gv_uW-39" value="&lt;font style=&quot;font-size: 10px;&quot;&gt;DevOps&lt;/font&gt;" style="shape=umlActor;verticalLabelPosition=bottom;verticalAlign=top;html=1;outlineConnect=0;" parent="1" vertex="1">
          <mxGeometry x="40" y="120" width="20" height="40" as="geometry" />
        </mxCell>
        <mxCell id="QF0iH-2CF8fzQv1Gv_uW-61" style="edgeStyle=orthogonalEdgeStyle;rounded=0;orthogonalLoop=1;jettySize=auto;html=1;" parent="1" target="QF0iH-2CF8fzQv1Gv_uW-31" edge="1">
          <mxGeometry relative="1" as="geometry">
            <mxPoint x="673" y="60" as="sourcePoint" />
            <Array as="points">
              <mxPoint x="673" y="96" />
              <mxPoint x="673" y="96" />
            </Array>
          </mxGeometry>
        </mxCell>
        <mxCell id="QF0iH-2CF8fzQv1Gv_uW-60" value="" style="outlineConnect=0;dashed=0;verticalLabelPosition=bottom;verticalAlign=top;align=center;html=1;shape=mxgraph.aws3.internet_2;fillColor=#66B2FF;gradientColor=none;" parent="1" vertex="1">
          <mxGeometry x="650" y="20" width="45" height="30" as="geometry" />
        </mxCell>
        <mxCell id="QF0iH-2CF8fzQv1Gv_uW-70" value="&lt;font style=&quot;font-size: 8px;&quot;&gt;dev.tfvars&lt;/font&gt;" style="verticalLabelPosition=bottom;html=1;verticalAlign=top;align=center;shape=mxgraph.azure.code_file;pointerEvents=1;strokeWidth=1;fillColor=#dae8fc;strokeColor=#6c8ebf;" parent="1" vertex="1">
          <mxGeometry x="136.03" y="30" width="20" height="30" as="geometry" />
        </mxCell>
        <mxCell id="QF0iH-2CF8fzQv1Gv_uW-71" value="&lt;font style=&quot;font-size: 8px;&quot;&gt;test.tfvars&lt;/font&gt;" style="verticalLabelPosition=bottom;html=1;verticalAlign=top;align=center;shape=mxgraph.azure.code_file;pointerEvents=1;strokeWidth=1;fillColor=#dae8fc;strokeColor=#6c8ebf;" parent="1" vertex="1">
          <mxGeometry x="177.06" y="30" width="20" height="30" as="geometry" />
        </mxCell>
        <mxCell id="QF0iH-2CF8fzQv1Gv_uW-73" style="edgeStyle=orthogonalEdgeStyle;rounded=0;orthogonalLoop=1;jettySize=auto;html=1;endSize=3;endArrow=classic;endFill=0;" parent="1" edge="1">
          <mxGeometry relative="1" as="geometry">
            <mxPoint x="166" y="90" as="sourcePoint" />
            <mxPoint x="166" y="120" as="targetPoint" />
          </mxGeometry>
        </mxCell>
        <mxCell id="QF0iH-2CF8fzQv1Gv_uW-78" style="rounded=0;orthogonalLoop=1;jettySize=auto;html=1;endSize=3;endFill=0;startSize=3;" parent="1" edge="1">
          <mxGeometry relative="1" as="geometry">
            <mxPoint x="186.03" y="340" as="sourcePoint" />
            <mxPoint x="220" y="340" as="targetPoint" />
          </mxGeometry>
        </mxCell>
        <mxCell id="QF0iH-2CF8fzQv1Gv_uW-79" style="rounded=0;orthogonalLoop=1;jettySize=auto;html=1;endSize=3;endFill=0;startSize=3;" parent="1" edge="1">
          <mxGeometry relative="1" as="geometry">
            <mxPoint x="165.84000000000006" y="160" as="sourcePoint" />
            <mxPoint x="166" y="200" as="targetPoint" />
          </mxGeometry>
        </mxCell>
        <mxCell id="y2FYSkK0uKAj6WH6ypQ8-11" style="edgeStyle=orthogonalEdgeStyle;rounded=0;orthogonalLoop=1;jettySize=auto;html=1;entryX=0;entryY=0.5;entryDx=0;entryDy=0;endSize=3;endFill=0;startSize=3;" parent="1" target="y2FYSkK0uKAj6WH6ypQ8-10" edge="1">
          <mxGeometry relative="1" as="geometry">
            <mxPoint x="79" y="359" as="sourcePoint" />
            <Array as="points">
              <mxPoint x="79" y="360" />
              <mxPoint x="79" y="560" />
            </Array>
          </mxGeometry>
        </mxCell>
        <mxCell id="y2FYSkK0uKAj6WH6ypQ8-7" value="" style="shape=image;verticalLabelPosition=bottom;verticalAlign=top;imageAspect=0;aspect=fixed;image=data:image/png,iVBORw0KGgoAAAANSUhEUgAAAHAAAACACAYAAADTcu1SAAAAAXNSR0IArs4c6QAADitJREFUeAHtnX1UlFUex5/7PDOAoiWnRGbo5G6FL7XV4lqnrFZAT6booOxOLyuD7FZmdbT3jlu5S55t/SM37XjWNirFGWpLVmEGNLUEcteOWcZmbyrlZh1mSDCtFAVmnrvfB7nwMIHAvD3PzNw5B+597jNz7+9+P3Nfnvs2gi3PveUPlubxAn9FpQIipXRWB+n4uGCu+28Lrd+dH5W5iGOjRSXvgGgUZPrw6bYzDTaL++7iYtoZHse6RE3We4GiAh2Nv5Iv6t37bPM8U6MmF3FsaC+A3TpQ4ZfUJ9ehNG68M989tjuce3SnQN8Au8xEabS2e+mBAot7uc3WlKw767lBwjkBKvpQQUjC/2XC976DADkf7SXhuulHAVJgaQSjIb32GAziktLNpveH9Cn+5rAoMGAJ7CPV67xe+h5KY+nC/GZTH/d5UAQVCAQgzFOqUbqg1ddxqDDPvXTxYpoYQZt5UioFAgTYFQOlI2RKVxw/4vkMIOep4uXeCCkQSBvYr2koljUSkR4sdaZ93O+b+I2QKhBcCfQzBb2hHK8g1xfkNf69cN4PF/jd5pdhUCCkADvto1TCs8d9su/HBgyUL8GwnCEMdvMouxQIPcAeaVPwzPj8l/We/QA5oyeY+0KpQDgBdtoJiBPxt81maawq+s3RjFAaz+MSBh6JCZVIaB9ne70dnxTmNT67eP6x80IVb7zHE/YS2EtgKiTIVHj0xMm2Bjx23MWnrXqpE9BFZAF2mYgqNRXPjy99We/+oCjPfVNAlvMPdSqgCUCmPaVCppfSXba8xtcLre6LWTh3B6+ALrr4AHmb0C6kwuycwZvO36kooGkJVCNAJ4dPU6kFGaRfNwD97cVqgMlYLWf2D+fXZxVAP4Lk5FTN0S1AFMcbOoTO2Y4nioooJpX5iymQk1M9JTu7ai+anjW6BagYiyUdyeitPuM77vncNs+dzzIQr+7MmVsvArgyWZZ3Q4PJig666MQMBATVxc8En7CpIM9dJ4jSg2UVYz4a6DOxdN9qfXdYS8t3j54541sKLYar86brEqg2tNNPaZYg+/ZhbPWFhXe4L/zJ/RgMQHVpbWk5doBSebk/PCW70QVQsRizHcjIotOttKHQ4n5g4UIsSo7B1/TpWzOzsqp2obrciPz2+4wcfQC7YKEBHyULdPXpJs/+wrmembHC8Oabt6einSvx+bwf4Ns64ChVVLSB54KDjs4EKtOtaB+3JFDjI+tcow+e6/16vWe1fprQ3Py/xR0d7X9CiRv0YH/UlsCfgKA0N1o36WRnV+c2Nx/+RBDklUOBp2gQOwCRGWQ+qjbpTJ9ePRHV5XZ0UKphfUBzpTEFkJVKVKu63qSTm1udglGU1Vhfux9fupuZ3YG4MQmwWwidbdKxWqmEx4J7W1vlBlmmD6DUBd0HiW2AXST1sEknJ2drTnNzdT0eC9aiBx2yFXtxAVDhiNkOTTbpoJ27BM9zm2XZuxNWXNldO4TIEzcAmV4AmQ4hywrnuncX5XuuYeGhdq3W2hEAt8Lno58hvbCtWo87gAwUqrHrw7FJB50SkpVVvaC5+eQhgFPGLsO6byRuAZ4FGdpNOtOmVV2PZ7r38DxXCngR2bkV5wC7ymOQm3TwSJCuTPP4fAKmeWjYqmVWe6hdkQjkXqxmaFEHxq+fXoL5x81YhLyzKK9pwA5HUVFtEkrcMlTHh1BVzge8iC8LER0u8z8M4rAMQSTPA6Q3fuH15BwdnQE36SjTPEeOnOx3mqcntvD6OqvQ0sqUE2WV5geJJFxFCNke3iSjJHbVJp3f57snqa1G79LVNc0zVh2uhb9XG+ioMH/ucJpvESVpDoxp0MIgHaaZ0iELvebjCBGu1oudvQAyo+wVadXD08xXCER8DNXqDyycu/pToE+AipklJaSjzGlaSSQxAx2dV1C1yvozn1vUL0AmjaMi7Sg6OncRapgsEPJvFs5dfSgwIEBmpt2VWl/mNP9aJNLtKJFfs3DuaqvAoAEyM+3OtDcuTDRNwFxwMUC2snDuaqPAkAEqZq4qJ6fLXKanDSRxAnpkr2tjOk9VUSAggEy69c4LvnE40++QDMKN6OTsY+HcjZwCQQFkZm7YnL770kzTtaIg3YnHjm9ZOHfDr0BIACpmFhcT2e5KW5cyMnEcNoo9i7/28JvPUwgZQCblmlcv+KHMmf64kGC8Au1jFQvnbngUCDlAZmZZeeoXaB8tkkhm4PkRs9L8FQ4FwgaQGbuh0rzjskzT1aIoLEHYcRbO3dAoEHaAiploH732yvQ1ojQyA23jWpRIX2jM57FEBCCT2V5x3jG0j/cbBDFTOdmQhXM3cAUiCpCZqRxH6XClTxMJwa5bcpiFc3foCmgCkJlpd5orUsaaLicieYII9EcWzt3BKxD00u7BJ9X3O9esIW24s4IfZNC3PgOFaloC1caVlpIz6mvuH5wCugHoby7Wdx3AbMcp/3B+3aMAVsN9qFuAWJuz3SgYx6GTU4Y/LBTjL6YAJg4OiyLJr6ubk69bgIqx2C7tLnOZbfihkSkwei/LQBy7J6HDE0lJ0uU1NXMqFB0078QMBkbp5rQ9WDh73YL8pkLsq1uBrbgRWbY+GNsi8x5CMa7sSEgwLt2+/RaPOk3dAlQ2ieDVXXV2+TfcZz266cd275OA+BBuhnXjiFooDf17MAz5AEpcnzWQbqvQwjzPPTjQZwUOvBupFm9teepJtI9/NBoNl2NIrrMaUd+PFT++sI2SJNpqa+dM6Q+eklfdAsRQWyJK4VLlwDvbXE+RUiLVcNZtGnMYi6zyiSRNA8iP1fei20/OiKL4jNGYMH7nztll6lqor3zpFiAzFtuj06gsr8dhPnsL8r6dwsKZi2WPNZYEU6ZIxPvRThxj4dHpkn8lJRkm1tTMfmrHjhmDeoTSPUAGAiVwskC9u1Gtlt2Vf+wiFq64t5YTn91pWjsiOTmDEHENHjuiapMOStlH+PJl4bHAum3bzK/UeRvIHzUAWUYAcn6bt+0gSuSyh6x0GAtX3BdeG3Xc4TQtMRJyNarVHep7+vSTZti1aOrU2ZNqay3vBGJj1AFUMolqdTh2By1vafMcsFk8Vv+Mr3eaPkP7OIMQyYKG8wv/+9pfkw7UFKtGjRoxrq7O8qKynihQm6ISIMssQF5MBXkjzknbVWg5msnCmetwplVdmmi+QhTEx1Gt6mSTDnmTEMOVtbWzH66szD7BbA3UjWqA3Zmm9CZKvB+gfSyxzWtK7Q6Hp7ictNtdpmeTkqVxRBTWob0J+NuujneofrRxB5F2Ltq5WbW1Mw8O9fP9vT82ACJ3aBtF/N2Nn09vwGPHI/7niL78zzHfOirT78Se8mtRGpUjiyPyArTvAe/hjAwzSt2craFONGYA9ghDz8Njx8rWJvenCyye3J7wsz4sstqH8dUbiSDdAWG/8b8fqmvELeOvBOOWGeigrCopmdwRqrjV8cQgwO7sZfgEuRrV6jYcmD6xO7TL43ClvT5sDJmAYaqnsdDqtP/9YK5R6t4xGKRfAdw9b745S+lphu0VywA7RUO1OoP6hP0Fc92r7/3diRS1kiUl5laslisWE4iySecN9b1A/AB3BKMot6KqzHrrrdz/BhLHUD8T8wDPCoJTAXE64MlTpxrwgyKLNuLUQLVQ9nLz11iEfLsoERxxTD5U3xuMH+BOYX5u2dixIyZgFKV8MJ8J1XviBOBZuZRTAvHo8YKr3VNfaPFk+4torzD/57JJpmuwWu5uQDnqf/+n18o0D3kVpXc8Bpz/UlqaHfFlIXEFsBsApVfKglyD0rjJZm36eXc4PJ2bdJzml0eNSMxAj3Vl/5t0yPuSJNyA6rIA8BrVcUTSr9v5wEiIgNKYT9p8uQD53MhEw1+VqSqWrrJJB/7H8LOxJYLg7VXlop27/+23Z21B6euer2Sfi7SLkSZ9vpTfhFB+ViBi1hGCmW6y1FGZ5tADmMHmOz6r0L7UUZZpUHkDBsn3FOU3XdfXW/QYxgH6UcFjx7Ver/xugcXtKLS2pPvd1t0lB9gnks5zRAtoW/tBDAQ8qedV4xxgnwDPBqKTk4wS+RfvCc8t53ibprc4QE3lDz5xDjB4DTWNgQPUVP7gE+cAg9dQ0xg4QE3lDz5xDjB4DTWNgQPUVP7gE+cAg9dQ0xg4QE3lDz5xDjB4DTWNgQPUVP7gE+cAg9dQ0xg4QE3lDz5xDjB4DTWNgQPUVP7gE+cAg9dQ0xg4QE3lDz5xDjB4DTWNgQPUVP7gE9ctQGNisoMfzzwwYN0CfKX8/O/48cxRDJCZzo9nZkr07eq2BPqbqz6eGUeIdO9h8H9fvF1HDUAFjHI8s6PSvGK4ZByH/Qt27GXQfHOJ1l+YqALIxCrZPNqDA+8WYFOlsodhDwuPRzcqATJQ9krTXoCcApA2bLPSbI8es0cLN6oBKoIpW8HsleYy4XxpPPzPAGTEd8lqAY6lGfUAWUYcjrRTKI1PSaI4ESA3sfBYd2MGIANVWmn6CiB/axDFbJTGj1h4rLoxB5CBAsi6SyeZJ+HAgkWoaFtYeKy5MQtQAdV1YMGLBnFYBn6DYjWq1rCclqTllyKmATJhSytTTjhc5ofwY81XAeQ2Fh4LblwAZKBKN5kPAORMSRBn42yXQyw8mt24AshAbXCZtgwbY/6FKJBH8BzyPQuPRjcuASqgSkpIh91lfs6YQHDONnkJf5qcIxrslyZuATLh1pebmvHYsZBQw2SUxl0sPFrcuAfIQNldqfU4Z3sqBgJuA8gjLFzvLgfoR2hDpWnj6AQTRnPEP6PH2up3W3eXHGAfSFaVk9P4+YLliYZEZXz1NZHgnEP+il4F/M8X1VNO/g8k+slcMVd8QwAAAABJRU5ErkJggg==;fontSize=10;" parent="1" vertex="1">
          <mxGeometry x="60" y="310" width="32.88" height="37.57" as="geometry" />
        </mxCell>
        <mxCell id="oPnAin9H2eqynwGXjsGC-1" value="&lt;font style=&quot;font-size: 10px;&quot;&gt;Bucket&lt;/font&gt;" style="outlineConnect=0;fontColor=#232F3E;gradientColor=none;fillColor=#277116;strokeColor=none;dashed=0;verticalLabelPosition=bottom;verticalAlign=top;align=center;html=1;fontSize=12;fontStyle=0;aspect=fixed;pointerEvents=1;shape=mxgraph.aws4.bucket_with_objects;labelBackgroundColor=#ffffff;" parent="1" vertex="1">
          <mxGeometry x="-387" y="404" width="30.78" height="32" as="geometry" />
        </mxCell>
        <mxCell id="oPnAin9H2eqynwGXjsGC-2" value="&lt;font style=&quot;font-size: 10px;&quot;&gt;DynamoDB&lt;/font&gt;" style="outlineConnect=0;fontColor=#232F3E;gradientColor=#4D72F3;gradientDirection=north;fillColor=#3334B9;strokeColor=#ffffff;dashed=0;verticalLabelPosition=bottom;verticalAlign=top;align=center;html=1;fontSize=12;fontStyle=0;aspect=fixed;shape=mxgraph.aws4.resourceIcon;resIcon=mxgraph.aws4.dynamodb;labelBackgroundColor=#ffffff;" parent="1" vertex="1">
          <mxGeometry x="-389.11" y="525" width="35" height="35" as="geometry" />
        </mxCell>
      </root>
    </mxGraphModel>
  </diagram>
</mxfile>
